<?xml version="1.0" encoding="iso-8859-1"?>
<!-- Uploaded to: SVG Repo, www.svgrepo.com, Generator: SVG Repo Mixer Tools -->
<svg version="1.1" id="Layer_1" xmlns="http://www.w3.org/2000/svg" xmlns:xlink="http://www.w3.org/1999/xlink" 
	 viewBox="0 0 512 512" xml:space="preserve">
<circle style="fill:#E05B49;" cx="256" cy="256" r="256"/>
<path style="opacity:0.1;enable-background:new    ;" d="M495.813,345.68L393.008,242.923l-133.547-133.6h-6.933v15.307l17.6,17.6
	c-7.627-1.28-15.627-1.547-23.787-0.64c-18.208,2.005-34.715,10.005-47.6,21.893l-22.533-22.533l-4.907,4.907l22.533,22.533
	c-11.819,12.821-19.797,29.221-21.84,47.333c-0.949,8.336-0.565,16.416,0.763,24.176l-17.723-17.723h-15.307v6.88l55.653,55.653
	c11.941,13.269,19.893,29.472,23.696,46.789l-32.048-32.048l-4.907-4.907l-10.827,10.827l4.907,4.907l45.547,45.547v8.853
	c-2.293,0.267-4,2.347-3.733,4.64c0.085,0.789,0.437,1.456,0.896,2.027l-0.059,0.011l0.267,0.267c0.08,0.085,0.16,0.171,0.251,0.251
	l2.379,2.379v4.928c-2.293,0.267-4,2.347-3.733,4.64c0.085,0.789,0.437,1.456,0.896,2.032l-0.059,0.011l0.272,0.272
	c0.08,0.085,0.16,0.171,0.245,0.245l2.379,2.379v4.608c0,0.16,0.053,0.213,0.053,0.32h-0.053c-2.293,0.267-4,2.347-3.733,4.64
	c0.16,1.173,0.747,2.187,1.6,2.88l102.197,102.197C402.176,482.096,466.997,422.688,495.813,345.68z"/>
<path style="opacity:0.1;enable-background:new    ;" d="M335.781,140.949l-3.2,3.253l-0.053-0.053l-7.573,7.627l4.907,4.907
	l171.691,171.691c1.669-5.68,3.152-11.435,4.432-17.269L340.688,145.856L335.781,140.949z"/>
<g>
	<path style="fill:#FCD462;" d="M246.357,141.584c-38.741,4.283-69.973,35.419-74.368,74.149
		c-2.971,26.176,6.032,50.299,22.224,67.611c18.128,19.376,27.525,45.344,27.525,71.877v2.053h68.512v-2.048
		c0-27.259,10.816-53.072,28.944-73.435c13.291-14.933,21.371-34.608,21.371-56.176
		C340.571,175.739,297.381,135.941,246.357,141.584z"/>
	<rect x="252.533" y="109.333" style="fill:#FCD462;" width="6.923" height="15.307"/>
	<rect x="356.976" y="222.16" style="fill:#FCD462;" width="15.307" height="6.923"/>
	<rect x="139.733" y="222.16" style="fill:#FCD462;" width="15.307" height="6.923"/>
	
		<rect x="325.187" y="145.354" transform="matrix(0.7071 -0.7071 0.7071 0.7071 -7.7414 278.9401)" style="fill:#FCD462;" width="15.307" height="6.923"/>
	
		<rect x="171.526" y="298.971" transform="matrix(0.7071 -0.7071 0.7071 0.7071 -161.3718 215.279)" style="fill:#FCD462;" width="15.307" height="6.923"/>
	
		<rect x="329.382" y="294.79" transform="matrix(0.7072 -0.707 0.707 0.7072 -116.3752 323.8761)" style="fill:#FCD462;" width="6.923" height="15.307"/>
	
		<rect x="175.711" y="141.15" transform="matrix(0.7071 -0.7071 0.7071 0.7071 -52.7416 170.2773)" style="fill:#FCD462;" width="6.923" height="15.307"/>
</g>
<path style="fill:#64798A;" d="M290.256,357.275h-68.512v36.128c0,1.872,1.52,3.387,3.392,3.387h61.739
	c1.872,0,3.387-1.52,3.387-3.387v-36.128H290.256z"/>
<g>
	<path style="fill:#2F4859;" d="M289.333,357.301l-67.589,7.397c-2.304,0.251-3.968,2.325-3.717,4.629
		c0.251,2.304,2.325,3.968,4.629,3.717l67.589-7.403c2.304-0.251,3.968-2.325,3.717-4.629
		C293.712,358.709,291.643,357.045,289.333,357.301z"/>
	<path style="fill:#2F4859;" d="M289.333,371.813l-67.589,7.403c-2.304,0.251-3.968,2.325-3.717,4.629s2.325,3.968,4.629,3.717
		l67.589-7.403c2.304-0.251,3.968-2.325,3.717-4.629C293.712,373.221,291.643,371.557,289.333,371.813z"/>
	<path style="fill:#2F4859;" d="M289.333,386.325l-67.589,7.403c-2.304,0.251-3.968,2.325-3.717,4.629
		c0.251,2.304,2.325,3.968,4.629,3.717l67.589-7.403c2.304-0.251,3.968-2.325,3.717-4.629
		C293.712,387.733,291.643,386.069,289.333,386.325z"/>
	<path style="fill:#2F4859;" d="M240.421,396.709c0,3.291,6.976,5.957,15.579,5.957s15.573-2.667,15.573-5.957H240.421z"/>
</g>
<polygon style="fill:#DC8744;" points="274.219,357.275 268.928,356.624 285.669,220.288 270.832,232.891 256,217.659 
	241.168,232.891 226.325,220.288 243.067,356.624 237.776,357.275 219.371,207.387 240.821,225.6 256,210.016 271.179,225.6 
	292.629,207.387 "/>
</svg>